<svg xmlns="http://www.w3.org/2000/svg" viewBox="0 0 359.44 374"><title>bookingto</title><g id="Layer_2" data-name="Layer 2"><g id="Layer_1-2" data-name="Layer 1"><path d="M163.36,22.45V42.51l6.74-.4v-20Zm19.1,19.69v-20L175.72,22V42ZM194.81,23h.1a176,176,0,1,1-43.91.76l6.74-.83V43.06L151,44A156,156,0,0,0,65.69,308.31,156,156,0,0,0,286.31,87.69a154.8,154.8,0,0,0-91.4-44.56h-.1l-6.73-.66v-20Z"/><rect x="219.42" y="159.29" width="16.75" height="133.52" rx="3.57" ry="3.57" transform="translate(-69.85 346.03) rotate(-66.73)"/><path d="M271.47,249.79l9-21a3.82,3.82,0,0,1,5-2l57.83,24.87a26.72,26.72,0,0,1,13.95,35h0a3.81,3.81,0,0,1-5,2L273.47,254.8A3.82,3.82,0,0,1,271.47,249.79Z"/><rect x="164.6" y="77.06" width="16.62" height="132.46" rx="3.54" ry="3.54"/><path d="M194.82,44.82V69.93a11.66,11.66,0,0,1-11.66,11.66h-20.5A11.66,11.66,0,0,1,151,69.93V44.82Z"/><path d="M157.74,1.38V51.51a1.37,1.37,0,0,1-1.37,1.37h-4A1.37,1.37,0,0,1,151,51.51V1.38a1.36,1.36,0,0,1,.05-.36,1.37,1.37,0,0,1,1.33-1h4a1.35,1.35,0,0,1,1.32,1A1.36,1.36,0,0,1,157.74,1.38Z"/><path d="M170.1,1.36V51.52a1.35,1.35,0,0,1-1.36,1.36h-4a1.36,1.36,0,0,1-1.36-1.36V1.36a1.27,1.27,0,0,1,0-.34,1.35,1.35,0,0,1,1.31-1h4a1.33,1.33,0,0,1,1.31,1A1.27,1.27,0,0,1,170.1,1.36Z"/><path d="M182.46,1.37V51.51a1.37,1.37,0,0,1-1.37,1.37h-4a1.37,1.37,0,0,1-1.37-1.37V1.37a1.34,1.34,0,0,1,.05-.35,1.35,1.35,0,0,1,1.32-1h4a1.36,1.36,0,0,1,1.32,1A1.34,1.34,0,0,1,182.46,1.37Z"/><path d="M194.81,1.36V51.52a1.35,1.35,0,0,1-1.35,1.36h-4a1.36,1.36,0,0,1-1.36-1.36V1.36a1.27,1.27,0,0,1,0-.34,1.35,1.35,0,0,1,1.31-1h4a1.35,1.35,0,0,1,1.3,1A1.27,1.27,0,0,1,194.81,1.36Z"/></g></g></svg>
