<svg xmlns="http://www.w3.org/2000/svg" viewBox="0 0 359.44 374"><defs><style>.cls-1{fill:#fff;}</style></defs><title>iconbookin</title><g id="Layer_2" data-name="Layer 2"><g id="Layer_1-2" data-name="Layer 1"><path d="M176,42A156,156,0,0,1,286.31,308.31,156,156,0,0,1,65.69,87.69,155,155,0,0,1,176,42m0-20A176,176,0,1,0,352,198,176,176,0,0,0,176,22Z"/><rect class="cls-1" x="151" y="1.02" width="43.91" height="65.36"/><rect x="219.42" y="159.29" width="16.75" height="133.52" rx="3.57" ry="3.57" transform="translate(-69.85 346.03) rotate(-66.73)"/><path d="M271.47,249.79l9-21a3.82,3.82,0,0,1,5-2l57.83,24.87a26.72,26.72,0,0,1,13.95,35h0a3.81,3.81,0,0,1-5,2L273.47,254.8A3.82,3.82,0,0,1,271.47,249.79Z"/><rect x="164.6" y="77.06" width="16.62" height="132.46" rx="3.54" ry="3.54"/><path d="M151,44.82h43.82a0,0,0,0,1,0,0V69.93a11.66,11.66,0,0,1-11.66,11.66H162.66A11.66,11.66,0,0,1,151,69.93V44.82A0,0,0,0,1,151,44.82Z"/><path d="M157.74,1.38V51.51a1.37,1.37,0,0,1-1.37,1.37h-4A1.37,1.37,0,0,1,151,51.51V1.38A1.37,1.37,0,0,1,152.38,0h4A1.37,1.37,0,0,1,157.74,1.38Z"/><path d="M170.1,1.36V51.52a1.35,1.35,0,0,1-1.36,1.36h-4a1.36,1.36,0,0,1-1.36-1.36V1.36A1.36,1.36,0,0,1,164.72,0h4A1.36,1.36,0,0,1,170.1,1.36Z"/><rect x="175.72" width="6.74" height="52.88" rx="1.37" ry="1.37"/><path d="M194.81,1.36V51.52a1.35,1.35,0,0,1-1.35,1.36h-4a1.36,1.36,0,0,1-1.36-1.36V1.36A1.36,1.36,0,0,1,189.44,0h4A1.36,1.36,0,0,1,194.81,1.36Z"/></g></g></svg>
